REM DIRINDEX 1\2\4,1\2\5,1\3\6,1\3\7
REM DIRNAME folder01,folder02,folder03,folder04,folder05,folder06,folder07
TITLE ""
FILE "grammar_ch05.mp3" MP3
  TRACK 01 AUDIO
    TITLE "5:cjc072_313"
    INDEX 01 00:00:00
  TRACK 02 AUDIO
    TITLE "5:cjc072_314"
    INDEX 01 00:02:14
  TRACK 03 AUDIO
    TITLE "4:cjc072_315"
    INDEX 01 00:06:49
  TRACK 04 AUDIO
    TITLE "4:cjc072_316"
    INDEX 01 00:08:13
  TRACK 05 AUDIO
    TITLE "4:cjc072_317"
    INDEX 01 00:10:59
  TRACK 06 AUDIO
    TITLE "4:cjc072_318"
    INDEX 01 00:20:47
  TRACK 07 AUDIO
    TITLE "4:cjc072_319"
    INDEX 01 00:26:58
  TRACK 08 AUDIO
    TITLE "4:cjc072_320"
    INDEX 01 00:32:25
  TRACK 09 AUDIO
    TITLE "4:cjc072_321"
    INDEX 01 00:35:27
  TRACK 10 AUDIO
    TITLE "4:cjc072_322"
    INDEX 01 00:40:13
  TRACK 11 AUDIO
    TITLE "4:cjc072_323"
    INDEX 01 00:48:44
  TRACK 12 AUDIO
    TITLE "0:"
    INDEX 01 00:52:24
  TRACK 13 AUDIO
    TITLE "7:cjc072_324"
    INDEX 01 00:54:01
  TRACK 14 AUDIO
    TITLE "7:cjc072_325"
    INDEX 01 00:56:22
  TRACK 15 AUDIO
    TITLE "6:cjc072_326"
    INDEX 01 01:00:17
  TRACK 16 AUDIO
    TITLE "6:cjc072_327"
    INDEX 01 01:01:38
  TRACK 17 AUDIO
    TITLE "6:cjc072_328"
    INDEX 01 01:04:09
  TRACK 18 AUDIO
    TITLE "6:cjc072_329"
    INDEX 01 01:12:42
  TRACK 19 AUDIO
    TITLE "6:cjc072_330"
    INDEX 01 01:17:67
  TRACK 20 AUDIO
    TITLE "6:cjc072_331"
    INDEX 01 01:22:66
  TRACK 21 AUDIO
    TITLE "6:cjc072_332"
    INDEX 01 01:25:51
  TRACK 22 AUDIO
    TITLE "6:cjc072_333"
    INDEX 01 01:29:48
  TRACK 23 AUDIO
    TITLE "6:cjc072_334"
    INDEX 01 01:35:61
  TRACK 24 AUDIO
    TITLE "0:"
    INDEX 01 01:39:43
  TRACK 25 AUDIO
    TITLE "5:cjc072_335"
    INDEX 01 01:41:10
  TRACK 26 AUDIO
    TITLE "4:cjc072_336"
    INDEX 01 01:45:49
  TRACK 27 AUDIO
    TITLE "4:cjc072_337"
    INDEX 01 01:46:68
  TRACK 28 AUDIO
    TITLE "4:cjc072_338"
    INDEX 01 01:51:03
  TRACK 29 AUDIO
    TITLE "4:cjc072_339"
    INDEX 01 01:56:61
  TRACK 30 AUDIO
    TITLE "4:cjc072_340"
    INDEX 01 01:59:73
  TRACK 31 AUDIO
    TITLE "4:cjc072_341"
    INDEX 01 02:09:07
  TRACK 32 AUDIO
    TITLE "4:cjc072_342"
    INDEX 01 02:12:15
  TRACK 33 AUDIO
    TITLE "4:cjc072_343"
    INDEX 01 02:14:24
  TRACK 34 AUDIO
    TITLE "0:"
    INDEX 01 02:16:52
  TRACK 35 AUDIO
    TITLE "7:cjc072_344"
    INDEX 01 02:18:21
  TRACK 36 AUDIO
    TITLE "6:cjc072_345"
    INDEX 01 02:22:56
  TRACK 37 AUDIO
    TITLE "6:cjc072_346"
    INDEX 01 02:23:62
  TRACK 38 AUDIO
    TITLE "6:cjc072_347"
    INDEX 01 02:27:40
  TRACK 39 AUDIO
    TITLE "6:cjc072_348"
    INDEX 01 02:32:41
  TRACK 40 AUDIO
    TITLE "6:cjc072_349"
    INDEX 01 02:35:02
  TRACK 41 AUDIO
    TITLE "6:cjc072_350"
    INDEX 01 02:44:01
  TRACK 42 AUDIO
    TITLE "6:cjc072_351"
    INDEX 01 02:47:00
  TRACK 43 AUDIO
    TITLE "6:cjc072_352"
    INDEX 01 02:48:52
  TRACK 44 AUDIO
    TITLE "0:"
    INDEX 01 02:50:70
  TRACK 45 AUDIO
    TITLE "5:cjc072_353"
    INDEX 01 02:52:46
  TRACK 46 AUDIO
    TITLE "4:cjc072_354"
    INDEX 01 02:57:10
  TRACK 47 AUDIO
    TITLE "4:cjc072_355"
    INDEX 01 02:58:48
  TRACK 48 AUDIO
    TITLE "4:cjc072_356"
    INDEX 01 03:04:61
  TRACK 49 AUDIO
    TITLE "4:cjc072_357"
    INDEX 01 03:13:42
  TRACK 50 AUDIO
    TITLE "4:cjc072_358"
    INDEX 01 03:19:41
  TRACK 51 AUDIO
    TITLE "4:cjc072_359"
    INDEX 01 03:28:02
  TRACK 52 AUDIO
    TITLE "4:cjc072_360"
    INDEX 01 03:33:25
  TRACK 53 AUDIO
    TITLE "4:cjc072_361"
    INDEX 01 03:43:53
  TRACK 54 AUDIO
    TITLE "4:cjc072_362"
    INDEX 01 03:47:63
  TRACK 55 AUDIO
    TITLE "4:cjc072_363"
    INDEX 01 03:49:61
  TRACK 56 AUDIO
    TITLE "0:"
    INDEX 01 03:53:10
  TRACK 57 AUDIO
    TITLE "7:cjc072_364"
    INDEX 01 03:54:63
  TRACK 58 AUDIO
    TITLE "6:cjc072_365"
    INDEX 01 03:58:64
  TRACK 59 AUDIO
    TITLE "6:cjc072_366"
    INDEX 01 04:00:26
  TRACK 60 AUDIO
    TITLE "6:cjc072_367"
    INDEX 01 04:05:53
  TRACK 61 AUDIO
    TITLE "6:cjc072_368"
    INDEX 01 04:13:42
  TRACK 62 AUDIO
    TITLE "6:cjc072_369"
    INDEX 01 04:18:00
  TRACK 63 AUDIO
    TITLE "6:cjc072_370"
    INDEX 01 04:26:31
  TRACK 64 AUDIO
    TITLE "6:cjc072_371"
    INDEX 01 04:30:58
  TRACK 65 AUDIO
    TITLE "6:cjc072_372"
    INDEX 01 04:38:29
  TRACK 66 AUDIO
    TITLE "6:cjc072_373"
    INDEX 01 04:42:18
  TRACK 67 AUDIO
    TITLE "6:cjc072_374"
    INDEX 01 04:43:26
  TRACK 68 AUDIO
    TITLE "0:"
    INDEX 01 04:46:40
  TRACK 69 AUDIO
    TITLE "5:cjc072_375"
    INDEX 01 04:48:15
  TRACK 70 AUDIO
    TITLE "4:cjc072_376"
    INDEX 01 04:52:54
  TRACK 71 AUDIO
    TITLE "4:cjc072_377"
    INDEX 01 04:55:09
  TRACK 72 AUDIO
    TITLE "4:cjc072_378"
    INDEX 01 04:56:64
  TRACK 73 AUDIO
    TITLE "4:cjc072_379"
    INDEX 01 05:04:34
  TRACK 74 AUDIO
    TITLE "4:cjc072_380"
    INDEX 01 05:10:70
  TRACK 75 AUDIO
    TITLE "4:cjc072_381"
    INDEX 01 05:21:09
  TRACK 76 AUDIO
    TITLE "4:cjc072_382"
    INDEX 01 05:29:42
  TRACK 77 AUDIO
    TITLE "4:cjc072_383"
    INDEX 01 05:38:74
  TRACK 78 AUDIO
    TITLE "4:cjc072_384"
    INDEX 01 05:40:26
  TRACK 79 AUDIO
    TITLE "0:"
    INDEX 01 05:43:01
  TRACK 80 AUDIO
    TITLE "7:cjc072_385"
    INDEX 01 05:44:47
  TRACK 81 AUDIO
    TITLE "6:cjc072_386"
    INDEX 01 05:48:60
  TRACK 82 AUDIO
    TITLE "6:cjc072_387"
    INDEX 01 05:50:48
  TRACK 83 AUDIO
    TITLE "6:cjc072_388"
    INDEX 01 05:51:71
  TRACK 84 AUDIO
    TITLE "6:cjc072_389"
    INDEX 01 05:57:61
  TRACK 85 AUDIO
    TITLE "6:cjc072_390"
    INDEX 01 06:03:64
  TRACK 86 AUDIO
    TITLE "6:cjc072_391"
    INDEX 01 06:12:16
  TRACK 87 AUDIO
    TITLE "6:cjc072_392"
    INDEX 01 06:19:20
  TRACK 88 AUDIO
    TITLE "6:cjc072_393"
    INDEX 01 06:27:31
  TRACK 89 AUDIO
    TITLE "6:cjc072_394"
    INDEX 01 06:28:29
  TRACK 90 AUDIO
    TITLE "0:"
    INDEX 01 06:31:15
